<svg width="135" height="135" viewBox="0 0 135 135" fill="none" xmlns="http://www.w3.org/2000/svg">
<path d="M0 10C0 4.47715 4.47715 0 10 0H80.5597C87.2583 0 92.0628 6.45736 90.138 12.8735L74.4991 65.0031C73.5598 68.1341 71.1494 70.6084 68.044 71.6294L13.1232 89.6855C6.65551 91.8119 0 86.994 0 80.1858V10Z" fill="#D9D9D9"/>
<path d="M12 25C12 19.4772 16.4772 15 22 15H73.3981C80.1445 15 84.9552 21.5434 82.9429 27.9827L71.8017 63.6346C70.8261 66.7564 68.3857 69.2038 65.2667 70.1882L25.0098 82.8939C18.5649 84.928 12 80.1159 12 73.3576V25Z" fill="#7F00FF"/>
<circle cx="47" cy="111" r="19" fill="#7F00FF"/>
<circle cx="113" cy="47" r="19" fill="#7F00FF"/>
<circle cx="107" cy="50" r="5" fill="white"/>
<circle cx="52" cy="105" r="5" fill="white"/>
<circle cx="14.5" cy="15.5" r="10.5" fill="white"/>
<circle cx="67.5" cy="65.5" r="10.5" fill="white"/>
<path d="M98.211 78.0149C97.0789 83.4205 133.825 105.908 127.879 104.662C121.932 103.417 82.8868 80.4481 84.0189 75.0425C85.1511 69.637 90.8891 66.2644 96.8353 67.5098C102.781 68.7551 99.3432 72.6093 98.211 78.0149Z" fill="black"/>
<path d="M85.7693 94.9372C89.8588 92.112 123.818 118.345 120.339 113.308C116.859 108.272 81.5539 80.0907 77.4643 82.916C73.3748 85.7413 72.8803 92.1146 76.3599 97.1512C79.8395 102.188 81.6798 97.7625 85.7693 94.9372Z" fill="black"/>
</svg>
